<svg width="370" height="165" viewBox="0 0 370 165" fill="none" xmlns="http://www.w3.org/2000/svg">
<rect width="369.44" height="165" fill="white"/>
<g clip-path="url(#clip0)">
<path d="M20.06 53H25.13C28.77 53 31 54.89 31 58C31.0345 58.8974 30.8008 59.7848 30.3288 60.5489C29.8568 61.313 29.1679 61.9191 28.35 62.29L33.56 69.63H29.56L25.15 62.9H23.42V69.6H20.06V53ZM23.42 55.87V60H25.32C25.6089 60.0284 25.9006 59.9961 26.1763 59.905C26.452 59.8139 26.7055 59.6661 26.9206 59.4711C27.1357 59.2761 27.3076 59.0383 27.4253 58.7729C27.5429 58.5074 27.6037 58.2203 27.6037 57.93C27.6037 57.6397 27.5429 57.3526 27.4253 57.0871C27.3076 56.8217 27.1357 56.5839 26.9206 56.3889C26.7055 56.1939 26.452 56.0461 26.1763 55.955C25.9006 55.8639 25.6089 55.8316 25.32 55.86L23.42 55.87Z" fill="black"/>
<path d="M35.67 53H45.33V55.87H39V59.7H44.35V62.57H39V66.71H45.3V69.6H35.67V53ZM38.93 51.58L41.61 48.38H45.07L42 51.6L38.93 51.58Z" fill="black"/>
<path d="M49.24 53H54.71C58.36 53 60.58 54.87 60.58 57.95C60.58 61.03 58.36 62.88 54.71 62.88H52.6V69.58H49.24V53ZM52.6 55.87V60H54.85C55.1389 60.0284 55.4306 59.9961 55.7063 59.905C55.9819 59.8139 56.2355 59.6661 56.4506 59.4711C56.6657 59.2761 56.8376 59.0383 56.9553 58.7729C57.0729 58.5074 57.1337 58.2203 57.1337 57.93C57.1337 57.6397 57.0729 57.3526 56.9553 57.0871C56.8376 56.8217 56.6657 56.5839 56.4506 56.3889C56.2355 56.1939 55.9819 56.0461 55.7063 55.955C55.4306 55.8639 55.1389 55.8316 54.85 55.86L52.6 55.87Z" fill="black"/>
<path d="M73.14 53H76.5V63.11C76.5 67.47 73.94 70.11 69.77 70.11C65.6 70.11 63.07 67.51 63.07 63.11V53H66.43V63.39C66.43 65.62 67.69 66.92 69.8 66.92C71.91 66.92 73.14 65.62 73.14 63.39V53Z" fill="black"/>
<path d="M80.67 53H85.38C88.84 53 90.92 54.71 90.92 57.5C90.9263 58.1482 90.7693 58.7875 90.4635 59.359C90.1576 59.9304 89.7128 60.4157 89.17 60.77C89.9694 61.0717 90.6584 61.6089 91.1459 62.3106C91.6333 63.0124 91.8963 63.8456 91.9 64.7C91.9 67.7 89.55 69.58 85.74 69.58H80.67V53ZM84 55.89V59.51H85.42C86.7 59.51 87.42 58.87 87.42 57.69C87.42 56.51 86.68 55.89 85.42 55.89H84ZM84 62.4V66.73H85.9C87.46 66.73 88.41 65.91 88.41 64.53C88.41 63.15 87.41 62.4 85.9 62.4H84Z" fill="black"/>
<path d="M95.33 53H98.69V66.55H105V69.6H95.33V53Z" fill="black"/>
<path d="M108 53H111.37V69.6H108V53Z" fill="black"/>
<path d="M133.34 70.76C133.745 70.7653 134.147 70.7011 134.53 70.57V73.41C133.975 73.6346 133.379 73.7403 132.78 73.72C130.839 73.6628 128.989 72.8857 127.59 71.54L125.59 69.79C124.849 69.982 124.086 70.0762 123.32 70.07C121.589 70.0641 119.898 69.5453 118.461 68.5791C117.025 67.613 115.907 66.2428 115.248 64.6416C114.59 63.0404 114.421 61.28 114.762 59.5827C115.103 57.8854 115.94 56.3273 117.166 55.1052C118.393 53.8831 119.954 53.0518 121.652 52.7162C123.35 52.3806 125.11 52.5558 126.709 53.2197C128.308 53.8836 129.674 55.0064 130.636 56.4463C131.597 57.8863 132.11 59.5787 132.11 61.31C132.12 62.6351 131.832 63.9455 131.266 65.1437C130.7 66.3418 129.87 67.3967 128.84 68.23L129.84 69.17C130.758 70.131 132.012 70.7006 133.34 70.76V70.76ZM128.68 61.31C128.725 60.5813 128.62 59.8511 128.371 59.1645C128.123 58.4778 127.737 57.8492 127.237 57.3174C126.737 56.7856 126.133 56.3618 125.463 56.0722C124.792 55.7825 124.07 55.633 123.34 55.633C122.61 55.633 121.888 55.7825 121.217 56.0722C120.547 56.3618 119.943 56.7856 119.443 57.3174C118.943 57.8492 118.557 58.4778 118.309 59.1645C118.06 59.8511 117.955 60.5813 118 61.31C117.955 62.0387 118.06 62.7689 118.309 63.4555C118.557 64.1422 118.943 64.7708 119.443 65.3026C119.943 65.8344 120.547 66.2582 121.217 66.5478C121.888 66.8375 122.61 66.987 123.34 66.987C124.07 66.987 124.792 66.8375 125.463 66.5478C126.133 66.2582 126.737 65.8344 127.237 65.3026C127.737 64.7708 128.123 64.1422 128.371 63.4555C128.62 62.7689 128.725 62.0387 128.68 61.31V61.31Z" fill="black"/>
<path d="M145.14 53H148.5V63.11C148.5 67.47 145.95 70.11 141.78 70.11C137.61 70.11 135.07 67.51 135.07 63.11V53H138.44V63.39C138.44 65.62 139.69 66.92 141.8 66.92C143.91 66.92 145.14 65.62 145.14 63.39V53Z" fill="black"/>
<path d="M152.67 53H162.34V55.87H156V59.7H161.35V62.57H156V66.71H162.3V69.6H152.63L152.67 53Z" fill="black"/>
<path d="M20.06 76.93H29.72V79.79H23.42V83.63H28.77V86.5H23.42V93.5H20.06V76.93Z" fill="black"/>
<path d="M32.68 76.93H37.75C41.4 76.93 43.65 78.8 43.65 81.93C43.6764 82.8182 43.4387 83.6942 42.967 84.4472C42.4952 85.2002 41.8107 85.7963 41 86.16L46.21 93.51H42.21L37.77 86.8H36.05V93.51H32.68V76.93ZM36.05 79.79V83.94H37.94C38.2246 83.9598 38.5102 83.9208 38.7791 83.8255C39.048 83.7301 39.2944 83.5805 39.503 83.3859C39.7116 83.1913 39.878 82.9558 39.9917 82.6942C40.1054 82.4325 40.1641 82.1503 40.1641 81.865C40.1641 81.5797 40.1054 81.2975 39.9917 81.0358C39.878 80.7742 39.7116 80.5387 39.503 80.3441C39.2944 80.1495 39.048 79.9999 38.7791 79.9045C38.5102 79.8092 38.2246 79.7702 37.94 79.79H36.05Z" fill="black"/>
<path d="M53.19 76.93H57.6L63.88 93.51H60.3L58.71 89.2H52.08L50.49 93.51H46.92L53.19 76.93ZM57.67 86.33L55.4 80.1L53.12 86.33H57.67Z" fill="black"/>
<path d="M66.43 76.93H70.74L78.16 88.79V76.93H81.52V93.51H77.21L69.8 81.59V93.51H66.43V76.93Z" fill="black"/>
<path d="M97.89 88.56L100.54 90.56C99.8706 91.4706 99.0208 92.2335 98.0435 92.8013C97.0663 93.369 95.9826 93.7294 94.86 93.86L92.8 97.32H89.8L91.89 93.84C90.4995 93.5644 89.1965 92.9561 88.0922 92.0673C86.9879 91.1785 86.1153 90.0355 85.5488 88.7361C84.9823 87.4367 84.7389 86.0194 84.8394 84.6054C84.9398 83.1914 85.3812 81.8228 86.1256 80.6165C86.8701 79.4102 87.8956 78.4021 89.1144 77.6783C90.3333 76.9545 91.7092 76.5366 93.1247 76.4603C94.5402 76.384 95.9531 76.6516 97.2427 77.2401C98.5323 77.8287 99.6602 78.7207 100.53 79.84L97.88 81.9C97.3998 81.1924 96.7526 80.6142 95.9956 80.2165C95.2385 79.8188 94.3951 79.6139 93.54 79.62C92.0918 79.6811 90.7232 80.2994 89.7202 81.3458C88.7171 82.3921 88.157 83.7855 88.157 85.235C88.157 86.6845 88.7171 88.0779 89.7202 89.1242C90.7232 90.1706 92.0918 90.7889 93.54 90.85C94.3979 90.8575 95.2442 90.6523 96.0033 90.2527C96.7625 89.8531 97.4107 89.2715 97.89 88.56V88.56Z" fill="black"/>
<path d="M107.53 76.93H111.93L118.21 93.51H114.63L113.05 89.2H106.41L104.83 93.51H101.25L107.53 76.93ZM112 86.33L109.73 80.1L107.46 86.33H112Z" fill="black"/>
<path d="M120.77 76.93H124.13V93.51H120.77V76.93Z" fill="black"/>
<path d="M129.72 89C130.141 89.589 130.69 90.075 131.325 90.4214C131.961 90.7678 132.667 90.9656 133.39 91C133.661 91.0382 133.937 91.0166 134.198 90.9366C134.459 90.8567 134.7 90.7204 134.903 90.5373C135.106 90.3543 135.267 90.1289 135.373 89.8771C135.48 89.6253 135.53 89.3532 135.52 89.08C135.52 86.08 127.94 86.78 127.94 81.26C127.94 78.63 130.1 76.45 133.25 76.45C134.366 76.4428 135.47 76.6915 136.475 77.1768C137.48 77.6622 138.361 78.3714 139.05 79.25L136.59 81.45C136.233 80.8736 135.748 80.3877 135.172 80.0303C134.596 79.6729 133.945 79.4537 133.27 79.39C133.029 79.3694 132.787 79.3986 132.557 79.4759C132.328 79.5531 132.118 79.6768 131.938 79.8391C131.759 80.0014 131.615 80.199 131.516 80.4193C131.416 80.6397 131.363 80.8782 131.36 81.12C131.36 84.12 138.93 83.39 138.93 89.01C138.93 92.09 136.47 94.01 133.44 94.01C132.268 94.0638 131.1 93.841 130.03 93.3599C128.959 92.8787 128.018 92.1525 127.28 91.24L129.72 89Z" fill="black"/>
<path d="M142.46 76.93H152.13V79.79H145.83V83.63H151.18V86.5H145.83V90.64H152.13V93.51H142.46V76.93Z" fill="black"/>
<path d="M74 139.29C74.45 139.29 74.84 139.63 74.63 140.49L72.54 140.98C72.9 139.98 73.54 139.29 74 139.29V139.29ZM75.15 142.65H74.74C74.5562 142.937 74.316 143.183 74.0341 143.374C73.7521 143.564 73.4343 143.696 73.1 143.76C72.53 143.76 72.23 143.42 72.23 142.65C72.2325 142.341 72.266 142.033 72.33 141.73L75.7 140.62C76.35 139.07 75.56 138.39 74.64 138.39C73.05 138.39 71.24 141.05 71.24 143.39C71.24 144.44 71.74 145.01 72.51 145.01C73.28 145.01 74.37 144.12 75.15 142.66V142.65ZM74.48 137.78L76.85 135.56V135.31H75.59L74.13 137.78H74.48ZM67.21 139.33H68.33L66.56 144.18C66.5135 144.264 66.4896 144.36 66.4906 144.456C66.4916 144.552 66.5175 144.647 66.5658 144.73C66.6141 144.814 66.6831 144.884 66.7662 144.933C66.8492 144.981 66.9436 145.008 67.04 145.01C67.7307 144.919 68.3871 144.655 68.9484 144.243C69.5096 143.83 69.9574 143.282 70.25 142.65H70C69.4428 143.248 68.7291 143.677 67.94 143.89L69.57 139.33H71.24L71.44 138.64H69.78L70.4 136.89H69.75L68.6 138.64L67.22 138.83L67.21 139.33ZM65.71 139.1C65.7419 139.028 65.7565 138.95 65.7525 138.872C65.7486 138.793 65.7262 138.717 65.6873 138.649C65.6483 138.581 65.5939 138.522 65.5283 138.479C65.4628 138.436 65.388 138.409 65.31 138.4C64.7235 138.468 64.1684 138.702 63.7098 139.074C63.2511 139.445 62.9078 139.94 62.72 140.5H63C63.3187 140.019 63.7966 139.665 64.35 139.5L62.49 144.33C62.4536 144.402 62.4355 144.482 62.4372 144.562C62.439 144.643 62.4606 144.722 62.5002 144.792C62.5398 144.862 62.596 144.922 62.664 144.965C62.732 145.008 62.8096 145.034 62.89 145.04C63.4571 144.956 63.9893 144.715 64.426 144.344C64.8627 143.973 65.1863 143.486 65.36 142.94H65.04C64.7257 143.421 64.2509 143.776 63.7 143.94L65.71 139.1ZM66.05 136.67C66.2078 136.668 66.3615 136.619 66.4917 136.53C66.6219 136.441 66.7229 136.316 66.7819 136.169C66.8409 136.023 66.8554 135.862 66.8234 135.708C66.7914 135.553 66.7144 135.412 66.6021 135.301C66.4899 135.19 66.3473 135.115 66.1924 135.085C66.0375 135.055 65.8772 135.071 65.7316 135.132C65.586 135.193 65.4616 135.295 65.3741 135.427C65.2867 135.558 65.24 135.712 65.24 135.87C65.24 135.976 65.261 136.081 65.3018 136.178C65.3427 136.276 65.4025 136.365 65.4778 136.439C65.5532 136.514 65.6426 136.572 65.7408 136.612C65.839 136.652 65.9441 136.671 66.05 136.67V136.67ZM55.35 144.1C55.1 144.65 55.35 145 55.89 145C56.0289 145.02 56.1703 144.986 56.2842 144.904C56.3981 144.822 56.4755 144.698 56.5 144.56L57.79 141.15C58.3886 140.424 59.1944 139.897 60.1 139.64C60.45 139.64 60.4 139.93 60.17 140.37L58.17 144.17C58.1231 144.255 58.0992 144.351 58.1007 144.448C58.1021 144.546 58.1289 144.641 58.1784 144.725C58.2278 144.808 58.2982 144.878 58.3827 144.926C58.4671 144.974 58.5627 145 58.66 145C59.2453 144.928 59.7987 144.694 60.2568 144.322C60.7148 143.951 61.059 143.458 61.25 142.9H61C60.6838 143.384 60.205 143.739 59.65 143.9L61.35 140.46C61.5473 140.096 61.6601 139.693 61.68 139.28C61.6939 139.158 61.6803 139.034 61.6403 138.917C61.6002 138.8 61.5348 138.694 61.4486 138.606C61.3624 138.518 61.2577 138.45 61.142 138.408C61.0264 138.365 60.9027 138.349 60.78 138.36C59.94 138.36 59.09 139.36 58.08 140.47V139.57C58.08 138.93 57.88 138.36 57.29 138.36C56.93 138.36 56.58 138.67 56.29 139.12V139.24C56.92 139.24 57.2 140.16 56.75 141.15L55.35 144.1ZM55.35 139.87C55.58 139.08 55.46 138.39 54.86 138.39C54.26 138.39 53.96 138.93 53.23 140.5V139.6C53.23 138.96 53.02 138.39 52.44 138.39C51.86 138.39 51.14 139.39 50.66 140.49H51C51.33 140.02 51.63 139.74 51.87 139.74C52.11 139.74 52.32 140.19 51.87 141.18L50.56 144.1C50.32 144.65 50.56 145 51.11 145C51.44 145 51.58 144.91 51.71 144.56L53 141.15C53.37 140.7 53.7 140.31 54.11 139.87H55.35ZM47.89 139.29C48.34 139.29 48.73 139.63 48.52 140.49L46.4 141C46.77 140 47.4 139.31 47.86 139.31L47.89 139.29ZM49 142.65H48.6C48.4207 142.932 48.1868 143.176 47.912 143.366C47.6373 143.557 47.3272 143.691 47 143.76C46.43 143.76 46.14 143.42 46.14 142.65C46.1392 142.341 46.1694 142.033 46.23 141.73L49.6 140.62C50.26 139.07 49.47 138.39 48.54 138.39C46.95 138.39 45.14 141.05 45.14 143.39C45.14 144.44 45.64 145.01 46.42 145.01C47.2 145.01 48.28 144.12 49.05 142.66L49 142.65ZM41.12 139.33H42.2L40.42 144.18C40.3731 144.265 40.3492 144.361 40.3507 144.458C40.3521 144.556 40.3789 144.651 40.4284 144.735C40.4778 144.818 40.5482 144.888 40.6327 144.936C40.7171 144.984 40.8127 145.01 40.91 145.01C41.6001 144.917 42.2558 144.653 42.8167 144.24C43.3777 143.828 43.8259 143.281 44.12 142.65H43.8C43.2465 143.247 42.5361 143.677 41.75 143.89L43.37 139.33H45L45.21 138.64H43.63L44.25 136.89H43.61L42.45 138.64L41.08 138.83L41.12 139.33ZM34.98 143.11C34.98 141.62 36.64 139.59 37.58 139.59C37.7724 139.586 37.9643 139.609 38.15 139.66L37.15 142.25C36.59 142.93 35.73 143.76 35.33 143.76C35.09 143.76 34.95 143.56 34.95 143.11H34.98ZM40.07 138.11H39.56L38.98 138.67H38.86C36.09 138.67 33.7 141.78 33.7 144.04C33.6877 144.174 33.7051 144.31 33.751 144.437C33.7969 144.564 33.8702 144.679 33.9656 144.774C34.0611 144.87 34.1763 144.943 34.3032 144.989C34.4301 145.035 34.5656 145.052 34.7 145.04C35.42 145.04 36.13 144.04 36.92 142.92V143.31C36.82 144.43 37.16 145.04 37.75 145.04C38.34 145.04 39.05 143.98 39.52 142.94H39.2C38.88 143.41 38.57 143.69 38.33 143.69C38.09 143.69 37.89 143.23 38.33 142.24L40.07 138.11ZM34.16 139.87C34.39 139.08 34.27 138.39 33.66 138.39C33.05 138.39 32.76 138.93 32.03 140.5V139.6C32.03 138.96 31.82 138.39 31.24 138.39C30.66 138.39 29.94 139.39 29.47 140.49H29.78C30.11 140.02 30.41 139.74 30.66 139.74C30.91 139.74 31.11 140.19 30.66 141.18L29.33 144.1C29.09 144.65 29.33 145 29.88 145C30.0189 145.02 30.1603 144.986 30.2742 144.904C30.3881 144.822 30.4655 144.698 30.49 144.56L31.78 141.15C32.14 140.7 32.47 140.31 32.88 139.87H34.16ZM24.85 144.76L24.97 144.38C23.35 144.08 23.15 144.08 23.79 142.31L24.45 140.5H26.22C27.03 140.5 27.04 140.83 26.92 141.71H27.38L28.45 138.78H28C27.59 139.47 27.28 139.98 26.4 139.98H24.63L25.57 137.41C25.86 136.6 26.03 136.41 27.12 136.41H27.9C29.03 136.41 29.16 136.71 29.16 137.86H29.61L29.99 135.86H23.28L23.16 136.24C24.46 136.51 24.58 136.63 23.97 138.31L22.52 142.31C21.91 143.98 21.65 144.11 20.16 144.38L20.05 144.76H24.85Z" fill="black"/>
<path d="M57.73 124.09C58.18 124.09 58.57 124.43 58.36 125.3L56.27 125.78C56.64 124.78 57.27 124.09 57.73 124.09ZM58.89 127.46H58.47C58.2862 127.747 58.046 127.993 57.7641 128.184C57.4821 128.374 57.1643 128.506 56.83 128.57C56.26 128.57 55.97 128.22 55.97 127.46C55.9687 127.151 55.9989 126.843 56.06 126.54L59.43 125.43C60.09 123.87 59.3 123.19 58.37 123.19C56.78 123.19 54.97 125.85 54.97 128.19C54.97 129.19 55.47 129.81 56.25 129.81C57.03 129.81 58.11 128.92 58.89 127.46V127.46ZM58.22 122.57L60.59 120.36V120.1H59.31L57.85 122.57H58.22ZM51 124.13H52.12L50.29 129C50.2461 129.086 50.2245 129.181 50.2274 129.277C50.2302 129.373 50.2573 129.467 50.3063 129.55C50.3552 129.633 50.4243 129.702 50.5071 129.751C50.5899 129.8 50.6838 129.827 50.78 129.83C51.4745 129.739 52.1344 129.473 52.6977 129.056C53.261 128.64 53.7091 128.087 54 127.45H53.68C53.1213 128.041 52.4128 128.47 51.63 128.69L53.25 124.13H54.92L55.13 123.44H53.5L54.12 121.69H53.48L52.32 123.44L50.95 123.63L51 124.13ZM49.49 123.9C49.5239 123.828 49.5401 123.749 49.5372 123.669C49.5342 123.589 49.5123 123.511 49.4731 123.442C49.434 123.372 49.3788 123.313 49.3121 123.269C49.2455 123.226 49.1693 123.198 49.09 123.19C48.5035 123.262 47.9493 123.499 47.4911 123.872C47.0329 124.245 46.6894 124.74 46.5 125.3H46.82C47.1406 124.82 47.6177 124.467 48.17 124.3L46.31 129.14C46.2736 129.212 46.2555 129.292 46.2572 129.372C46.259 129.453 46.2806 129.532 46.3202 129.602C46.3598 129.672 46.416 129.732 46.484 129.775C46.552 129.818 46.6296 129.844 46.71 129.85C47.2765 129.764 47.8074 129.52 48.2423 129.147C48.6772 128.774 48.9986 128.287 49.17 127.74H48.86C48.5376 128.218 48.0611 128.571 47.51 128.74L49.49 123.9ZM49.83 121.47C49.9906 121.472 50.1482 121.426 50.2827 121.338C50.4172 121.251 50.5226 121.125 50.5854 120.977C50.6483 120.829 50.6657 120.666 50.6356 120.508C50.6055 120.35 50.5292 120.205 50.4163 120.091C50.3034 119.977 50.1591 119.898 50.0017 119.866C49.8443 119.834 49.681 119.85 49.5324 119.911C49.3838 119.972 49.2567 120.076 49.1672 120.209C49.0778 120.342 49.03 120.499 49.03 120.66C49.0287 120.766 49.0484 120.871 49.088 120.969C49.1276 121.067 49.1863 121.157 49.2607 121.232C49.3352 121.308 49.4238 121.367 49.5215 121.408C49.6192 121.449 49.7241 121.47 49.83 121.47V121.47ZM43.36 128.74L46.76 119.85L46.65 119.72L44.52 119.96V120.21L44.93 120.53C45.31 120.82 45.19 121.1 44.85 122L42.2 129C42.1535 129.084 42.1296 129.18 42.1306 129.276C42.1316 129.372 42.1575 129.467 42.2058 129.55C42.2541 129.634 42.3231 129.704 42.4062 129.753C42.4892 129.801 42.5836 129.828 42.68 129.83C43.2508 129.753 43.7873 129.512 44.2253 129.138C44.6633 128.764 44.9843 128.272 45.15 127.72H44.83C44.4642 128.207 43.9472 128.559 43.36 128.72V128.74ZM36.92 127.89C36.92 126.39 38.59 124.36 39.52 124.36C39.7129 124.359 39.9048 124.386 40.09 124.44L39.09 127.03C38.53 127.71 37.67 128.53 37.27 128.53C37.04 128.53 36.89 128.34 36.89 127.89H36.92ZM42.01 122.89H41.5L40.93 123.45H40.81C38.03 123.45 35.64 126.56 35.64 128.82C35.6277 128.954 35.6451 129.09 35.691 129.217C35.7369 129.344 35.8102 129.459 35.9056 129.554C36.0011 129.65 36.1163 129.723 36.2432 129.769C36.3701 129.815 36.5056 129.832 36.64 129.82C37.35 129.82 38.06 128.82 38.85 127.7V128.09C38.75 129.21 39.09 129.82 39.68 129.82C40.27 129.82 40.98 128.76 41.45 127.71H41.14C40.81 128.19 40.51 128.47 40.26 128.47C40.01 128.47 39.82 128 40.26 127.02L42.01 122.89ZM29.61 131C29.61 130.36 30.23 130 31.12 129.61C31.5464 129.799 31.9839 129.963 32.43 130.1C33.36 130.41 33.71 130.53 33.71 130.81C33.71 131.41 32.71 131.81 31.33 131.81C30.17 131.81 29.61 131.56 29.61 130.95V131ZM32.13 127.03C31.73 127.03 31.57 126.69 31.57 126.3C31.57 125.22 32.15 123.62 33.07 123.62C33.47 123.62 33.63 123.96 33.63 124.35C33.63 125.44 33.04 127.03 32.13 127.03ZM34.77 130.36C34.77 129.58 34.08 129.3 32.95 128.96C31.95 128.67 31.53 128.58 31.53 128.27C31.5561 128.097 31.6271 127.934 31.7359 127.797C31.8447 127.66 31.9875 127.554 32.15 127.49C32.846 127.439 33.4988 127.133 33.9839 126.632C34.469 126.13 34.7524 125.467 34.78 124.77C34.7824 124.54 34.7382 124.312 34.65 124.1H36L36.2 123.41H34.06C33.8023 123.248 33.5044 123.161 33.2 123.16C32.481 123.169 31.7928 123.453 31.276 123.953C30.7593 124.453 30.4531 125.132 30.42 125.85C30.4018 126.231 30.5227 126.605 30.76 126.903C30.9974 127.201 31.335 127.402 31.71 127.47C30.91 127.82 30.48 128.23 30.48 128.72C30.4732 128.848 30.5001 128.975 30.558 129.089C30.616 129.203 30.7028 129.3 30.81 129.37C28.98 129.91 28.26 130.52 28.26 131.37C28.26 132.22 29.37 132.56 30.68 132.56C32.91 132.56 34.77 131.36 34.77 130.35V130.36ZM26.27 125.15C27.07 125.15 27.09 125.47 26.96 126.35H27.43L28.5 123.42H28C27.6 124.11 27.29 124.62 26.41 124.62H24.68L25.57 122.18C25.86 121.37 26.03 121.18 27.12 121.18H27.9C29.03 121.18 29.16 121.48 29.16 122.61H29.61L29.99 120.61H23.28L23.16 120.99C24.46 121.25 24.58 121.37 23.97 123.05L22.52 127.05C21.91 128.71 21.65 128.85 20.16 129.12L20.05 129.49H27.51L28.85 127.38H28.34C27.9058 127.863 27.3798 128.255 26.7927 128.533C26.2056 128.812 25.569 128.97 24.92 129C22.92 129 23.12 128.91 23.78 127.1L24.48 125.17L26.27 125.15ZM27.27 120.05L29.64 118.42V118.17H28.18L26.87 120.05H27.27Z" fill="black"/>
<path d="M56.94 108.9C57.39 108.9 57.78 109.24 57.57 110.1L55.48 110.59C55.85 109.59 56.48 108.9 56.94 108.9V108.9ZM58.09 112.26H57.68C57.4918 112.551 57.2453 112.8 56.9562 112.991C56.667 113.182 56.3415 113.311 56 113.37C55.43 113.37 55.14 113.03 55.14 112.26C55.1392 111.951 55.1694 111.643 55.23 111.34L58.6 110.23C59.26 108.68 58.47 108 57.54 108C55.95 108 54.14 110.66 54.14 113C54.14 114.05 54.64 114.62 55.42 114.62C56.2 114.62 57.28 113.73 58.05 112.27L58.09 112.26ZM57.39 107.39L59.76 105.18V104.92H58.52L57.06 107.39H57.39ZM50.39 108.94H51.28L49.5 113.79C49.4561 113.876 49.4345 113.971 49.4374 114.067C49.4402 114.163 49.4673 114.257 49.5163 114.34C49.5652 114.423 49.6343 114.492 49.7171 114.541C49.7999 114.59 49.8938 114.617 49.99 114.62C50.6807 114.529 51.3371 114.265 51.8984 113.853C52.4596 113.44 52.9074 112.892 53.2 112.26H53C52.4465 112.857 51.7361 113.287 50.95 113.5L52.58 108.94H54.24L54.45 108.25H52.78L53.4 106.5H52.76L51.6 108.24L50.46 108.44L50.39 108.94ZM49.52 109.49C49.75 108.7 49.63 108.01 49.02 108.01C48.41 108.01 48.12 108.55 47.39 110.12V109.22C47.39 108.58 47.18 108.01 46.6 108.01C46.02 108.01 45.3 109.07 44.82 110.11H45.14C45.47 109.64 45.77 109.36 46.02 109.36C46.27 109.36 46.46 109.81 46.02 110.8L44.7 113.72C44.46 114.27 44.7 114.62 45.25 114.62C45.58 114.62 45.72 114.54 45.86 114.18L47.15 110.77C47.51 110.32 47.84 109.93 48.25 109.49H49.52ZM42.05 108.91C42.5 108.91 42.89 109.25 42.68 110.11L40.59 110.6C40.96 109.6 41.59 108.91 42.05 108.91ZM43.21 112.27H42.79C42.6062 112.557 42.366 112.803 42.0841 112.994C41.8021 113.184 41.4843 113.316 41.15 113.38C40.58 113.38 40.29 113.04 40.29 112.27C40.2925 111.961 40.326 111.653 40.39 111.35L43.75 110.24C44.41 108.69 43.62 108.01 42.7 108.01C41.1 108.01 39.29 110.67 39.29 113.01C39.29 114.06 39.79 114.63 40.57 114.63C41.35 114.63 42.43 113.74 43.21 112.28V112.27ZM35 113.63C34.68 113.63 34.2 113.32 34.2 113.05C34.2892 112.733 34.3994 112.422 34.53 112.12L35.08 110.67C35.66 109.98 36.55 109.24 37.08 109.24C37.38 109.24 37.61 109.43 37.61 109.88C37.61 111.21 36.37 113.63 35.03 113.63H35ZM38.86 109.35C38.86 108.35 38.5 108 37.86 108C37.01 108 36.2 108.9 35.4 110L37.4 104.66L37.29 104.53L35.16 104.77V105L35.58 105.32C35.96 105.61 35.83 105.91 35.49 106.79L33.31 112.43C33.1627 112.753 33.0423 113.087 32.95 113.43C32.95 114.01 33.74 114.56 34.46 114.56C36.11 114.56 38.87 111.56 38.87 109.3L38.86 109.35ZM32.26 108.65C32.2919 108.578 32.3065 108.5 32.3025 108.422C32.2986 108.343 32.2762 108.267 32.2373 108.199C32.1983 108.131 32.1439 108.072 32.0783 108.029C32.0128 107.986 31.938 107.959 31.86 107.95C31.2739 108.019 30.7194 108.253 30.2609 108.625C29.8025 108.997 29.4589 109.491 29.27 110.05H29.59C29.9043 109.569 30.3791 109.214 30.93 109.05L29.05 113.91C29.0128 113.982 28.9945 114.062 28.9966 114.143C28.9988 114.224 29.0214 114.303 29.0623 114.373C29.1032 114.443 29.1611 114.501 29.2306 114.543C29.3002 114.584 29.3791 114.607 29.46 114.61C30.0253 114.525 30.5553 114.283 30.9901 113.912C31.4249 113.54 31.747 113.055 31.92 112.51H31.61C31.2913 112.991 30.8134 113.345 30.26 113.51L32.26 108.65ZM32.6 106.22C32.7582 106.22 32.9129 106.173 33.0444 106.085C33.176 105.997 33.2785 105.872 33.3391 105.726C33.3996 105.58 33.4155 105.419 33.3846 105.264C33.3537 105.109 33.2776 104.966 33.1657 104.854C33.0538 104.742 32.9112 104.666 32.7561 104.635C32.6009 104.605 32.44 104.62 32.2938 104.681C32.1477 104.741 32.0227 104.844 31.9348 104.976C31.8469 105.107 31.8 105.262 31.8 105.42C31.8 105.525 31.8207 105.629 31.8609 105.726C31.9011 105.823 31.96 105.911 32.0343 105.986C32.1086 106.06 32.1968 106.119 32.2938 106.159C32.3909 106.199 32.4949 106.22 32.6 106.22V106.22ZM27.7 105.44H23.26L23.14 105.82C24.44 106.09 24.56 106.21 23.95 107.89L22.52 111.89C21.91 113.59 21.65 113.72 20.16 114L20.05 114.38H26.78L28.24 111.78H27.73C26.9 112.69 25.93 113.78 24.44 113.78C23.31 113.78 23.17 113.59 23.78 111.88L25.21 107.88C25.81 106.21 26.08 106.08 27.57 105.81L27.7 105.44Z" fill="black"/>
<path d="M45 39.42L45.71 38.67C46.1366 38.1684 46.5977 37.6972 47.09 37.26C47.2354 37.1301 47.389 37.0099 47.55 36.9C47.55 36.9 47.55 36.77 47.63 36.73C47.42 36.81 47.3 36.98 47.09 37.06C47.09 37.06 47 37.06 47.09 36.98L47.53 36.65C47.53 36.65 47.53 36.65 47.53 36.56C47.275 36.5572 47.0228 36.6125 46.7923 36.7216C46.5619 36.8308 46.3593 36.9909 46.2 37.19C46.12 37.19 46.03 37.19 45.99 37.19C45.37 37.39 44.91 37.93 44.29 38.19V38.11C44.0452 38.2196 43.7949 38.3164 43.54 38.4C43.2079 38.4407 42.8721 38.4407 42.54 38.4C42.03 38.45 41.54 38.57 41.02 38.67C40.7514 38.7454 40.4929 38.8529 40.25 38.99V38.99L40.19 39.06C40.1103 39.1612 40.0119 39.2461 39.9 39.31C39.6546 39.4695 39.4238 39.6502 39.21 39.85C39.21 39.85 39.21 39.85 39.14 39.85L38.47 40.49C38.4309 40.5017 38.3891 40.5017 38.35 40.49V40.49L38.45 40.31C38.4899 40.2444 38.5333 40.181 38.58 40.12C38.6309 40.0329 38.6877 39.9493 38.75 39.87C38.75 39.87 38.75 39.87 38.75 39.81H38.69C38.9055 39.6138 39.1399 39.4396 39.39 39.29V39.29C39.39 39.29 39.32 39.29 39.34 39.29C39.3641 39.2516 39.3909 39.2148 39.42 39.18C39.3497 39.2174 39.2828 39.2609 39.22 39.31C39.12 39.4 39.05 39.59 38.89 39.58H38.83V39.53L38.89 39.44V39.39L38.94 39.32C38.9498 39.309 38.9553 39.2948 38.9553 39.28C38.9553 39.2652 38.9498 39.251 38.94 39.24C39.0222 39.1412 39.1202 39.0567 39.23 38.99V38.99L39.7 38.73L39.77 38.67C39.5372 38.748 39.3154 38.8555 39.11 38.99H39.04C39.0252 38.9999 39.0078 39.0052 38.99 39.0052C38.9722 39.0052 38.9548 38.9999 38.94 38.99C38.94 38.99 38.94 38.99 38.94 38.99C38.94 38.99 39.1 38.87 39.19 38.79C39.28 38.71 39.27 38.79 39.27 38.79C40.6 37.79 42.43 38 43.97 37.46L44.35 37.21C44.55 37.12 44.72 36.91 44.97 36.79C45.3129 36.5465 45.5632 36.194 45.68 35.79C45.6878 35.7639 45.6878 35.7361 45.68 35.71C45.1529 36.2723 44.5298 36.7362 43.84 37.08C42.9651 37.4134 42.0363 37.5829 41.1 37.58C41.1 37.5 41.22 37.5 41.31 37.5C41.4 37.5 41.39 37.33 41.47 37.25H41.6C41.6 37.25 41.6 37.17 41.68 37.17C41.76 37.17 41.89 37.17 41.85 37.17C41.72 37.01 41.47 37.3 41.27 37.17C41.35 37.09 41.27 36.97 41.39 36.92H41.56C41.5685 36.8594 41.5966 36.8032 41.64 36.76C42.26 36.38 42.85 36.09 43.43 35.76C43.3 35.76 43.22 35.88 43.1 35.76C43.18 35.76 43.1 35.64 43.18 35.64C43.64 35.51 44.01 35.26 44.47 35.1C44.3 35.1 44.18 35.22 44.01 35.1C44.09 35.05 44.14 34.97 44.26 34.97V34.85C44.26 34.8 44.26 34.8 44.34 34.8C44.3139 34.8078 44.2861 34.8078 44.26 34.8C44.26 34.72 44.43 34.8 44.51 34.68C44.59 34.56 44.39 34.68 44.39 34.68C44.5305 34.5295 44.7243 34.4398 44.93 34.43C44.88 34.34 44.76 34.43 44.76 34.34C44.76 34.25 44.76 34.34 44.84 34.34H44.76C44.68 34.34 44.76 34.22 44.76 34.18C44.9443 33.8725 45.0698 33.5334 45.13 33.18C45.13 33.18 45.05 33.18 45.05 33.18C44.5624 33.5938 43.9712 33.8669 43.34 33.97H43.14C43.0286 34.0212 42.9075 34.0477 42.785 34.0477C42.6625 34.0477 42.5414 34.0212 42.43 33.97C42.2783 33.8758 42.1374 33.7652 42.01 33.64C41.6975 33.4345 41.3619 33.2667 41.01 33.14C39.9783 32.8022 38.8949 32.6498 37.81 32.69C38.1709 32.3426 38.5701 32.0373 39 31.78C39.6763 31.516 40.3941 31.3738 41.12 31.36C40.9807 31.34 40.8393 31.34 40.7 31.36C40.0952 31.3679 39.4938 31.4519 38.91 31.61C38.5 31.7 38.12 31.86 37.71 31.95C37.46 32.03 37.33 32.28 37.04 32.24V32.11C37.2235 31.8465 37.4577 31.6222 37.7291 31.4505C38.0004 31.2788 38.3033 31.163 38.62 31.11C39.3572 31.035 40.1013 31.0653 40.83 31.2C41.3638 31.253 41.8922 31.3499 42.41 31.49C42.61 31.49 42.66 31.82 42.82 31.86C42.98 31.9 43.32 31.86 43.57 32.03C43.57 31.94 43.57 31.86 43.57 31.78C43.57 31.7 43.95 31.78 44.11 31.78C44.45 31.57 43.82 31.19 43.65 30.9L43.7 30.82C43.9958 31.139 44.332 31.418 44.7 31.65C44.91 31.73 45.41 31.86 45.33 31.65C45.0456 31.1965 44.71 30.7771 44.33 30.4V30.24C44.25 30.24 44.25 30.24 44.21 30.15V29.87C44.04 29.78 44.08 29.62 44 29.49C43.92 29.36 44 28.99 43.87 28.74C43.7988 28.5111 43.7453 28.2771 43.71 28.04C43.58 27.33 43.42 26.7 43.33 26.04C43.3895 25.2647 43.6823 24.5256 44.17 23.92C44.4371 23.3851 44.8364 22.9273 45.33 22.59C45.4989 22.094 45.7678 21.6379 46.12 21.25C46.4924 20.8781 46.9435 20.5945 47.44 20.42C47.8025 20.2608 48.173 20.1206 48.55 20H20V42H40.22C41.0754 41.4637 41.9754 41.0019 42.91 40.62C43.6474 40.2956 44.3481 39.8933 45 39.42V39.42ZM38.6 36.42C38.52 36.42 38.35 36.42 38.39 36.42C38.43 36.42 38.73 36.21 38.89 36.13C39.05 36.05 39.1 36 39.18 36.04C39.26 36.08 39.39 36.13 39.47 36.21C39.25 36.44 38.92 36.31 38.63 36.44L38.6 36.42ZM32.24 35.5C32.24 35.5 32.24 35.5 32.24 35.42C32.7554 34.7592 33.2042 34.0491 33.58 33.3C34.1127 32.9964 34.5923 32.608 35 32.15C35.6596 31.4041 36.449 30.784 37.33 30.32C37.6801 30.2004 38.0599 30.2004 38.41 30.32C38.29 30.49 38.08 30.45 37.91 30.57C37.8911 30.5783 37.8706 30.5825 37.85 30.5825C37.8294 30.5825 37.8089 30.5783 37.79 30.57C37.7983 30.5511 37.8025 30.5306 37.8025 30.51C37.8025 30.4894 37.7983 30.4689 37.79 30.45C37.37 30.91 36.79 31.11 36.46 31.65C36.13 32.19 36.04 32.65 35.46 32.74C35.29 32.74 35.46 32.61 35.46 32.65C34.2544 33.4357 33.1783 34.4039 32.27 35.52L32.24 35.5ZM35.69 32.76C35.69 32.84 35.6 32.85 35.56 32.92C35.546 32.9576 35.5247 32.992 35.4972 33.0212C35.4697 33.0504 35.4367 33.0738 35.4 33.09C35.4 33.09 35.31 33.09 35.31 33.09C35.331 33.0036 35.373 32.9236 35.4323 32.8573C35.4916 32.791 35.5664 32.7404 35.65 32.71C35.65 32.71 35.72 32.74 35.72 32.78L35.69 32.76ZM37.65 39C37.6283 39.0484 37.5937 39.0899 37.55 39.12C37.6 39.12 37.64 39.12 37.6 39.19C37.5095 39.2799 37.4047 39.3542 37.29 39.41H37.22L37.07 39.55C37.02 39.55 36.79 39.55 36.86 39.5C36.93 39.45 37.06 39.31 37.17 39.21C37.2315 39.1584 37.2884 39.1015 37.34 39.04L37.43 38.95C37.43 38.95 37.68 38.93 37.65 39ZM36.91 38.66C36.7597 38.7757 36.6028 38.8826 36.44 38.98C36.26 39.08 36.08 39.16 35.89 39.25C35.8794 39.2439 35.8673 39.2406 35.855 39.2406C35.8427 39.2406 35.8306 39.2439 35.82 39.25C35.6661 39.337 35.5248 39.4447 35.4 39.57L35.34 39.63L35.28 39.69L35.19 39.79C35.19 39.79 35.19 39.79 35.14 39.85C35.09 39.91 35.04 39.85 35.05 39.85H34.97H34.91H34.85L34.7 39.98C34.6125 40.0558 34.5321 40.1395 34.46 40.23V40.23V40.17L34.59 40.02L34.66 39.93L34.79 39.75C34.8104 39.7222 34.8272 39.692 34.84 39.66V39.58C34.844 39.5468 34.844 39.5132 34.84 39.48V39.48V39.41C34.84 39.41 34.84 39.41 34.84 39.35C34.84 39.29 34.84 39.35 34.84 39.35C34.8748 39.2257 34.9288 39.1076 35 39V39C34.94 39 34.9 39.1 34.84 39.14C34.78 39.18 34.71 39.14 34.77 39.08L34.86 38.99C34.9249 38.9151 34.9951 38.8449 35.07 38.78L35.2 38.68C35.2279 38.6387 35.2616 38.6017 35.3 38.57V38.57C35.7 38.18 36.37 38.2 36.9 37.96C37.1 37.87 37.35 37.96 37.56 37.96C37.7069 37.9224 37.8623 37.9365 38 38C37.59 38.22 37.25 38.45 36.91 38.67V38.66ZM37.76 35.76C37.76 35.76 37.88 35.76 37.92 35.68H37.59C37.59 35.68 37.59 35.68 37.59 35.6C37.38 35.6 37.13 35.72 36.92 35.76C36.71 35.8 36.38 36.05 36.05 36.14C35.72 36.23 35.22 36.68 34.72 36.84C34.72 36.84 34.72 36.84 34.72 36.76C34.72 36.68 34.93 36.59 35.01 36.47C35.09 36.35 35.01 36.39 35.01 36.39C35.3685 35.9864 35.771 35.6241 36.21 35.31V35.18C36.34 35.01 36.55 34.93 36.63 34.72C36.717 34.5471 36.8675 34.4145 37.05 34.35C37 34.35 36.92 34.35 36.92 34.22C36.75 34.22 36.59 34.31 36.42 34.22C36.4933 34.1498 36.5825 34.0983 36.68 34.07C36.6611 34.0686 36.6429 34.0623 36.6271 34.0518C36.6113 34.0413 36.5986 34.0269 36.59 34.01C36.59 33.93 36.67 33.84 36.8 33.81C36.93 33.78 37.17 33.81 37.29 33.64C37 33.64 36.67 33.72 36.38 33.56C36.5471 33.0339 36.9034 32.5885 37.38 32.31C37.38 32.31 37.5 32.31 37.5 32.31C37.5043 32.4079 37.4733 32.5041 37.4128 32.5811C37.3522 32.6582 37.2661 32.711 37.17 32.73C37.5126 32.7706 37.8486 32.8546 38.17 32.98C38.17 33.06 38.05 32.98 38 32.98C38.21 33.1 38.46 32.98 38.67 33.19C38.54 33.31 38.42 33.19 38.29 33.19C39.6118 33.4677 40.8701 33.99 42 34.73C41.0859 35.1476 40.121 35.4434 39.13 35.61C39.0214 35.6348 38.9086 35.6348 38.8 35.61C38.8 35.61 38.8 35.74 38.75 35.74C38.6084 35.7237 38.4651 35.7516 38.34 35.82C38.13 35.86 37.88 35.9 37.76 35.77V35.76Z" fill="#000091"/>
<path d="M80.54 20H56.86L57.08 20.1L57.68 20.42C58.0003 20.5659 58.2738 20.7978 58.47 21.09C58.5329 21.1633 58.5774 21.2505 58.6 21.3443C58.6226 21.4382 58.6226 21.5361 58.6 21.63C58.52 21.84 58.47 22.17 58.27 22.25C57.9918 22.3654 57.6858 22.3967 57.39 22.34C57.2205 22.3286 57.0528 22.2985 56.89 22.25C57.5347 22.4541 58.1028 22.8479 58.52 23.38C58.52 23.46 58.72 23.5 58.89 23.5C59.06 23.5 58.89 23.58 58.89 23.63C58.89 23.68 58.73 23.75 58.77 23.87H58.89C59.1 23.79 59.06 23.38 59.35 23.5C59.4518 23.5624 59.526 23.6612 59.5576 23.7764C59.5892 23.8915 59.5757 24.0144 59.52 24.12C59.3638 24.272 59.1967 24.4124 59.02 24.54C59.0005 24.5858 58.9904 24.6352 58.9904 24.685C58.9904 24.7348 59.0005 24.7842 59.02 24.83C59.1192 24.9828 59.1903 25.1522 59.23 25.33C59.35 25.62 59.39 25.96 59.52 26.25C59.715 26.8541 59.8129 27.4853 59.81 28.12C59.81 28.45 59.64 28.74 59.81 29.12C59.9196 29.4292 60.071 29.7219 60.26 29.99C60.43 30.1979 60.5837 30.4186 60.72 30.65C60.97 31.07 61.43 31.49 61.22 31.99C61.1 32.28 60.64 32.24 60.35 32.4C60.06 32.56 60.35 32.94 60.43 33.15C60.64 33.52 60.18 33.77 59.89 33.9C59.97 34.02 60.14 33.98 60.18 34.07C60.22 34.16 60.43 34.4 60.31 34.61C60.19 34.82 59.64 34.98 59.89 35.36C59.9562 35.5025 59.9905 35.6578 59.9905 35.815C59.9905 35.9722 59.9562 36.1275 59.89 36.27C59.8281 36.4287 59.7268 36.5689 59.5955 36.6774C59.4643 36.7859 59.3075 36.8591 59.14 36.89C58.8807 36.9548 58.6094 36.9548 58.35 36.89C58.2761 36.8384 58.1898 36.8074 58.1 36.8C57.3991 36.6648 56.6914 36.568 55.98 36.51C55.7762 36.5379 55.5774 36.5951 55.39 36.68C55.2145 36.8163 55.0475 36.9632 54.89 37.12V37.12C54.8547 37.1482 54.8243 37.1819 54.8 37.22L54.74 37.28V37.33C54.6154 37.4794 54.5049 37.6401 54.41 37.81V37.87C54.2781 38.112 54.1709 38.3666 54.09 38.63C53.9529 38.9456 53.8822 39.2859 53.8822 39.63C53.8822 39.9741 53.9529 40.3144 54.09 40.63C54.15 40.68 55.47 41.09 56.38 41.5C56.723 41.6428 57.057 41.8064 57.38 41.99H80.54V20Z" fill="#E1000F"/>
<path d="M58.27 28C58.43 28 58.68 28 58.68 28.13C58.6 28.46 58.1 28.54 57.85 28.87H57.73C57.6 28.96 57.64 29.17 57.52 29.17C57.3972 29.1257 57.2628 29.1257 57.14 29.17C57.218 29.2582 57.3157 29.3268 57.4251 29.3702C57.5346 29.4137 57.6527 29.4307 57.77 29.42C57.8036 29.4318 57.8329 29.4533 57.8543 29.4818C57.8756 29.5103 57.8881 29.5445 57.89 29.58C57.9194 29.5886 57.9506 29.5886 57.98 29.58H58.06V29.75C57.93 29.92 57.73 29.83 57.56 29.88C57.8879 29.9647 58.232 29.9647 58.56 29.88C58.81 29.79 58.56 29.38 58.72 29.17C58.64 29.17 58.72 29.04 58.64 29.04C58.713 28.9469 58.7969 28.863 58.89 28.79C58.9382 28.7916 58.9862 28.7815 59.0297 28.7606C59.0732 28.7397 59.1111 28.7086 59.14 28.67C59.14 28.59 58.97 28.54 59.01 28.46C59.26 28.29 59.47 28.04 59.39 27.79C59.31 27.54 59.01 27.67 58.81 27.59C58.5776 27.5262 58.3324 27.5262 58.1 27.59C57.8887 27.6232 57.681 27.6768 57.48 27.75C57.1931 27.8475 56.9232 27.9892 56.68 28.17C56.9691 28.0932 57.2631 28.0364 57.56 28C57.7957 27.97 58.0343 27.97 58.27 28V28Z" fill="#9D9D9C"/>
</g>
<g clip-path="url(#clip1)">
<path d="M250.94 104.9C244.04 104.9 241.04 108.8 240.94 108.9V104.9H235.34V133.7H240.94V116.1C241.04 111.9 246.34 109.4 249.94 109.4C252.64 109.4 256.04 111.2 256.04 114.5V133.6H261.64V114.6C261.64 108.1 256.84 104.9 250.94 104.9Z" fill="#262626"/>
<path d="M340.54 116.6H335.54C332.74 116.6 331.24 115.5 331.34 112.9C331.44 110.3 334.44 109.3 337.34 109.3C340.34 109.3 343.24 109.8 346.04 110.9L347.94 106.4C344.74 105.1 341.34 104.4 337.84 104.4C332.94 104.4 326.24 106.3 325.94 112.9C325.64 119.3 330.14 121.5 334.84 121.6H339.84C342.64 121.6 344.14 122.7 344.04 125.3C343.94 128 340.94 128.9 338.04 128.9C334.74 129 331.44 128.3 328.34 126.9L326.44 131.4C329.84 133.1 333.64 133.9 337.44 133.8C342.34 133.8 349.04 131.9 349.34 125.3C349.74 118.8 345.24 116.7 340.54 116.6Z" fill="#262626"/>
<path d="M308.14 104.3C300.04 104.3 294.04 109 294.04 119.4C294.04 129.8 301.64 133.9 309.44 133.9C316.64 133.9 320.44 131.5 320.44 131.5L318.34 127.2C318.34 127.2 315.54 129 309.24 129C304.94 129 300.44 127.7 299.74 121.6H321.74V119C321.84 109.6 317.44 104.3 308.14 104.3ZM299.94 117C300.54 110.9 303.74 109.1 308.44 109.1C313.54 109.1 315.84 111.5 316.14 117H299.94Z" fill="#262626"/>
<path d="M281.24 116.6H276.24C273.44 116.6 271.94 115.5 272.04 112.9C272.14 110.3 275.14 109.3 278.04 109.3C281.04 109.3 283.94 109.8 286.74 110.9L288.64 106.4C285.44 105.1 282.04 104.4 278.54 104.4C273.64 104.4 266.94 106.3 266.64 112.9C266.34 119.3 270.84 121.5 275.54 121.6H280.54C283.34 121.6 284.84 122.7 284.74 125.3C284.64 128 281.64 128.9 278.74 128.9C275.44 129 272.14 128.3 269.04 126.9L267.14 131.4C270.54 133.1 274.34 133.9 278.14 133.8C283.04 133.8 289.74 131.9 290.04 125.3C290.44 118.8 285.94 116.7 281.24 116.6Z" fill="#262626"/>
<path d="M215.64 104.5C211.94 104.5 208.24 105.1 204.74 106.3L206.94 110.8C209.94 109.8 213.14 109.4 216.34 109.4C219.64 109.4 223.54 110.3 223.54 114.6V116.3H212.54C206.84 116.4 202.34 118.4 202.34 125C202.34 131 207.24 133.7 213.24 133.7C220.34 133.7 223.44 129.7 223.44 129.7V133.7H229.04V113.1C228.74 106.5 221.14 104.5 215.64 104.5ZM223.44 122.3C223.44 126.6 217.94 129.1 214.24 129.1C211.54 129.1 208.04 128.2 208.04 124.9C208.04 121.6 209.94 120.7 212.74 120.7H223.44V122.3Z" fill="#262626"/>
<path d="M290.94 35.5C281.74 29.7 270.14 29.7 260.84 35.3C260.84 35.3 267.24 46.3 275.94 46.3C284.64 46.3 290.94 35.5 290.94 35.5Z" fill="#FFE800"/>
<path d="M257.14 38C253.14 41.4 250.14 45.9 248.44 51C246.74 56 246.54 61.5 247.84 66.6C247.84 66.6 260.14 63.9 262.84 55.7C265.54 47.5 257.14 38 257.14 38Z" fill="#FF9940"/>
<path d="M249.24 70.6C251.24 75.5 254.54 79.8 258.84 82.9C263.14 86.1 268.24 88 273.54 88.4C273.54 88.4 274.74 75.8 267.74 70.7C260.74 65.6 249.24 70.6 249.24 70.6Z" fill="#E1000F"/>
<path d="M278.14 88.3C288.94 87.3 298.24 80.4 302.34 70.4C302.34 70.4 290.64 65.4 283.64 70.6C276.64 75.8 278.14 88.3 278.14 88.3Z" fill="#5770BE"/>
<path d="M303.54 66.7C306.14 56.2 302.64 45.1 294.44 38.1C294.44 38.1 285.94 47.5 288.64 55.7C291.34 63.9 303.54 66.7 303.54 66.7Z" fill="#00AC8C"/>
</g>
<defs>
<clipPath id="clip0">
<rect width="142.34" height="125" fill="white" transform="translate(20 20)"/>
</clipPath>
<clipPath id="clip1">
<rect width="147.1" height="125" fill="white" transform="translate(202.34 20)"/>
</clipPath>
</defs>
</svg>
